HIERARCHY
ROOT hip
{
  OFFSET 0 0 0
  CHANNELS 6 Xposition Yposition Zposition Zrotation Yrotation Xrotation
  JOINT abdomen
  {
    OFFSET 0 20.6881 -0.73152
    CHANNELS 3 Zrotation Xrotation Yrotation
    JOINT chest
    {
      OFFSET 0 11.7043 -0.48768
      CHANNELS 3 Zrotation Xrotation Yrotation
      JOINT neck
      {
        OFFSET 0 22.1894 -2.19456
        CHANNELS 3 Zrotation Xrotation Yrotation
        JOINT head
        {
          OFFSET -0.24384 7.07133 1.2192
          CHANNELS 3 Zrotation Xrotation Yrotation
          JOINT leftEye
          {
            OFFSET 4.14528 8.04674 8.04672
            CHANNELS 3 Zrotation Xrotation Yrotation
            End Site
            {
              OFFSET 1 0 0
            }
          }
          JOINT rightEye
          {
            OFFSET -3.6576 8.04674 8.04672
            CHANNELS 3 Zrotation Xrotation Yrotation
            End Site
            {
              OFFSET 1 0 0
            }
          }
        }
      }
      JOINT rCollar
      {
        OFFSET -2.68224 19.2634 -4.8768
        CHANNELS 3 Zrotation Xrotation Yrotation
        JOINT rShldr
        {
          OFFSET -8.77824 -1.95073 1.46304
          CHANNELS 3 Zrotation Xrotation Yrotation
          JOINT rForeArm
          {
            OFFSET -28.1742 -1.7115 0.48768
            CHANNELS 3 Zrotation Xrotation Yrotation
            JOINT rHand
            {
              OFFSET -22.5879 0.773209 7.07136
              CHANNELS 3 Zrotation Xrotation Yrotation
              JOINT rThumb1
              {
                OFFSET -1.2192 -0.487915 3.41376
                CHANNELS 3 Zrotation Xrotation Yrotation
                JOINT rThumb2
                {
                  OFFSET -3.37035 -0.52449 3.41376
                  CHANNELS 3 Zrotation Xrotation Yrotation
                  End Site
                  {
                    OFFSET -1.78271 -1.18214 1.43049
                  }
                }
              }
              JOINT rIndex1
              {
                OFFSET -7.75947 0.938293 5.60832
                CHANNELS 3 Zrotation Xrotation Yrotation
                JOINT rIndex2
                {
                  OFFSET -2.54057 -0.884171 1.56538
                  CHANNELS 3 Zrotation Xrotation Yrotation
                  End Site
                  {
                    OFFSET -1.62519 -0.234802 1.16502
                  }
                }
              }
              JOINT rMid1
              {
                OFFSET -8.24714 1.18213 3.41376
                CHANNELS 3 Zrotation Xrotation Yrotation
                JOINT rMid2
                {
                  OFFSET -3.10165 -0.590103 1.0647
                  CHANNELS 3 Zrotation Xrotation Yrotation
                  End Site
                  {
                    OFFSET -2.48547 -0.328903 0.83742
                  }
                }
              }
              JOINT rRing1
              {
                OFFSET -8.82822 0.546677 1.51678
                CHANNELS 3 Zrotation Xrotation Yrotation
                JOINT rRing2
                {
                  OFFSET -2.60934 -0.819778 -0.0198488
                  CHANNELS 3 Zrotation Xrotation Yrotation
                  End Site
                  {
                    OFFSET -2.33842 -0.294052 0.168128
                  }
                }
              }
              JOINT rPinky1
              {
                OFFSET -8.27202 -0.0477905 -0.4584
                CHANNELS 3 Zrotation Xrotation Yrotation
                JOINT rPinky2
                {
                  OFFSET -1.82734 -0.647385 -0.700984
                  CHANNELS 3 Zrotation Xrotation Yrotation
                  End Site
                  {
                    OFFSET -1.69225 -0.51767 -0.607171
                  }
                }
              }
            }
          }
        }
      }
      JOINT lCollar
      {
        OFFSET 2.68224 19.2634 -4.8768
        CHANNELS 3 Zrotation Xrotation Yrotation
        JOINT lShldr
        {
          OFFSET 8.77824 -1.95073 1.46304
          CHANNELS 3 Zrotation Xrotation Yrotation
          JOINT lForeArm
          {
            OFFSET 28.1742 -1.7115 0.48768
            CHANNELS 3 Zrotation Xrotation Yrotation
            JOINT lHand
            {
              OFFSET 22.5879 0.773209 7.07136
              CHANNELS 3 Zrotation Xrotation Yrotation
              JOINT lThumb1
              {
                OFFSET 1.2192 -0.487915 3.41376
                CHANNELS 3 Zrotation Xrotation Yrotation
                JOINT lThumb2
                {
                  OFFSET 3.37035 -0.52449 3.41376
                  CHANNELS 3 Zrotation Xrotation Yrotation
                  End Site
                  {
                    OFFSET 1.78271 -1.18214 1.43049
                  }
                }
              }
              JOINT lIndex1
              {
                OFFSET 7.75947 0.938293 5.60832
                CHANNELS 3 Zrotation Xrotation Yrotation
                JOINT lIndex2
                {
                  OFFSET 2.54057 -0.884171 1.56538
                  CHANNELS 3 Zrotation Xrotation Yrotation
                  End Site
                  {
                    OFFSET 1.62519 -0.234802 1.16502
                  }
                }
              }
              JOINT lMid1
              {
                OFFSET 8.24714 1.18213 3.41376
                CHANNELS 3 Zrotation Xrotation Yrotation
                JOINT lMid2
                {
                  OFFSET 3.10165 -0.590103 1.0647
                  CHANNELS 3 Zrotation Xrotation Yrotation
                  End Site
                  {
                    OFFSET 2.48547 -0.328903 0.83742
                  }
                }
              }
              JOINT lRing1
              {
                OFFSET 8.82822 0.546677 1.51678
                CHANNELS 3 Zrotation Xrotation Yrotation
                JOINT lRing2
                {
                  OFFSET 2.60934 -0.819778 -0.0198488
                  CHANNELS 3 Zrotation Xrotation Yrotation
                  End Site
                  {
                    OFFSET 2.33842 -0.294052 0.168128
                  }
                }
              }
              JOINT lPinky1
              {
                OFFSET 8.27202 -0.0477905 -0.4584
                CHANNELS 3 Zrotation Xrotation Yrotation
                JOINT lPinky2
                {
                  OFFSET 1.82734 -0.647385 -0.700984
                  CHANNELS 3 Zrotation Xrotation Yrotation
                  End Site
                  {
                    OFFSET 1.69225 -0.51767 -0.607171
                  }
                }
              }
            }
          }
        }
      }
    }
  }
  JOINT rButtock
  {
    OFFSET -8.77824 4.35084 1.2192
    CHANNELS 3 Zrotation Xrotation Yrotation
    JOINT rThigh
    {
      OFFSET 0 -1.70687 -2.19456
      CHANNELS 3 Zrotation Xrotation Yrotation
      JOINT rShin
      {
        OFFSET 0 -36.8199 0.73152
        CHANNELS 3 Zrotation Xrotation Yrotation
        JOINT rFoot
        {
          OFFSET 0.73152 -45.1104 -5.12064
          CHANNELS 3 Zrotation Xrotation Yrotation
          End Site
          {
            OFFSET -1.1221 -3.69964 12.103
          }
        }
      }
    }
  }
  JOINT lButtock
  {
    OFFSET 8.77824 4.35084 1.2192
    CHANNELS 3 Zrotation Xrotation Yrotation
    JOINT lThigh
    {
      OFFSET 0 -1.70687 -2.19456
      CHANNELS 3 Zrotation Xrotation Yrotation
      JOINT lShin
      {
        OFFSET 0 -36.8199 0.73152
        CHANNELS 3 Zrotation Xrotation Yrotation
        JOINT lFoot
        {
          OFFSET -0.73152 -45.1104 -5.12064
          CHANNELS 3 Zrotation Xrotation Yrotation
          End Site
          {
            OFFSET 1.1221 -3.69964 12.103
          }
        }
      }
    }
  }
}
MOTION
Frames:	8
Frame Time:	0.00833333
47.3699 85.5069 -68.9875 0.0 0.0 0.0 2.23592 -0.00045843 0.060446 0.615843 0.00897668 0.106599 8.54338e-14 7.95139e-16 -6.95747e-16 2.56171e-13 9.54166e-15 -2.0919e-15 -0.0 0.0 0.0 -0.0 0.0 0.0 4.27384e-14 -6.65851e-17 -9.93923e-17 8.97972e-13 -1.22377e-15 -3.57812e-15 1.54786e-11 -4.65912e-12 -2.70347e-13 1.76818e-10 4.35863e-12 -1.15772e-12 4.17145e-10 -6.56305e-13 -3.12649e-12 7.20373e-10 -1.13546e-12 -5.41092e-12 4.1715e-10 -6.53604e-13 -3.13285e-12 7.73091 5.47488 0.417314 4.17145e-10 -6.55989e-13 -3.12012e-12 2.90554 0.965183 0.102902 4.17153e-10 -6.5589e-13 -3.12012e-12 10.2786 0.731801 0.0259123 4.17138e-10 -6.54002e-13 -3.11058e-12 2.22167 -0.733487 -0.20892 4.24436e-14 -6.56145e-17 -4.96962e-16 8.96789e-13 -1.53437e-15 -4.77083e-15 1.54338e-11 4.57682e-12 -2.8625e-13 1.7688e-10 -4.90059e-12 -1.12274e-12 4.17183e-10 -7.03495e-13 -3.1233e-12 7.20466e-10 -1.21497e-12 -5.40615e-12 4.17178e-10 -7.00915e-13 -3.11058e-12 -7.73091 5.47488 -0.417314 4.17183e-10 -7.03101e-13 -3.1233e-12 -2.90554 0.965183 -0.102902 4.17179e-10 -7.03201e-13 -3.1241e-12 -10.2786 0.731801 -0.0259123 4.17187e-10 -7.01312e-13 -3.13285e-12 -2.22167 -0.733487 0.20892 -2.03217e-16 0.0 -3.88251e-19 2.21213 -7.80165 -0.224278 0.00521808 8.55959 0.135849 -0.549238 -0.766547 0.0462804 2.03217e-16 0.0 3.88251e-19 1.18453 -1.92859 -0.00255108 0.00908676 -2.07858 0.0749435 0.513125 3.99847 -0.140479
48.2364 85.1937 -69.961 3.4427 -0.844 2.0283 1.05965 -2.33137 0.633747 0.552283 1.25617 0.304103 -0.180766 5.40175 -0.454522 0.355889 -9.67962 -0.819094 -0.0 0.0 0.0 -0.0 0.0 0.0 1.5183e-14 -5.13434e-15 1.95096e-15 22.2101 10.5523 -2.52607 -4.29378 -1.96586 6.6903 0.0549954 -5.21236 -0.72169 4.70311e-10 -1.23417e-10 -1.68315e-10 8.14429e-10 -2.15658e-10 -2.89153e-10 4.7032e-10 -1.23417e-10 -1.68319e-10 7.73091 5.47488 0.417314 4.70316e-10 -1.23418e-10 -1.68309e-10 2.90554 0.965183 0.102902 4.70318e-10 -1.23416e-10 -1.68309e-10 10.2786 0.731801 0.0259123 4.70305e-10 -1.23415e-10 -1.68299e-10 2.22167 -0.733487 -0.20892 1.49914e-14 -5.13388e-15 1.61124e-15 -21.2341 12.5161 0.480554 3.91834 -1.72433 -6.17953 -0.124174 -7.83101 1.06382 6.21544e-10 2.43247e-10 3.82938e-11 1.0726e-09 4.19016e-10 7.30503e-11 6.21539e-10 2.43249e-10 3.83037e-11 -7.73091 5.47488 -0.417314 6.21544e-10 2.43246e-10 3.82922e-11 -2.90554 0.965183 -0.102902 6.21537e-10 2.43247e-10 3.82927e-11 -10.2786 0.731801 -0.0259123 6.21547e-10 2.43248e-10 3.82855e-11 -2.22167 -0.733487 0.20892 -2.03217e-16 0.0 -3.88251e-19 1.46115 -6.14198 0.976582 0.0056788 9.23955 0.159901 -1.00397 -5.99265 -5.30319 2.03217e-16 0.0 3.88251e-19 1.23984 -1.338 0.0250847 0.00357508 -0.879241 0.0244327 0.425274 2.67187 -1.75013
48.102 85.1951 -69.9599 3.0998 -0.8045 2.0253 -0.131901 -4.79693 1.24521 0.475892 2.57009 0.513815 -0.270584 11.1155 -0.951985 0.403576 -19.9099 -1.77588 -0.0 0.0 0.0 -0.0 0.0 0.0 -1.32856e-14 -1.12726e-14 4.00986e-15 46.7625 21.5888 -5.50137 -8.33503 -3.953 13.7844 -0.0322153 -10.75 -1.50901 5.16576e-10 -2.50122e-10 -3.4587e-10 8.96734e-10 -4.37166e-10 -5.9428e-10 5.1659e-10 -2.50124e-10 -3.45873e-10 7.73091 5.47488 0.417314 5.16586e-10 -2.50124e-10 -3.45865e-10 2.90554 0.965183 0.102902 5.16581e-10 -2.5012e-10 -3.45865e-10 10.2786 0.731801 0.0259123 5.1657e-10 -2.50119e-10 -3.45855e-10 2.22167 -0.733487 -0.20892 -1.33649e-14 -1.12727e-14 3.73342e-15 -43.9303 25.7561 1.0741 7.66355 -3.48358 -12.7377 0.0725692 -16.1127 2.2583 8.42407e-10 5.0192e-10 7.82913e-11 1.45327e-09 8.64655e-10 1.49567e-10 8.42402e-10 5.01922e-10 7.82981e-11 -7.73091 5.47488 -0.417314 8.42407e-10 5.01918e-10 7.8288e-11 -2.90554 0.965183 -0.102902 8.42398e-10 5.0192e-10 7.829e-11 -10.2786 0.731801 -0.0259123 8.42409e-10 5.0192e-10 7.82846e-11 -2.22167 -0.733487 0.20892 -2.03217e-16 0.0 -3.88251e-19 0.595001 -4.39078 2.24375 0.00555454 9.96008 0.185469 -2.55956 -11.3599 -11.1212 2.03217e-16 0.0 3.88251e-19 1.30096 -0.716406 0.0545915 0.000101524 0.38751 -0.0288757 0.251442 1.27008 -3.44734
48.055 85.1831 -69.9747 3.1087 -0.897 2.1137 -1.15206 -6.99023 1.7921 0.399317 3.75032 0.700393 -0.276169 16.2011 -1.41366 0.136496 -29.0134 -2.77015 -0.0 0.0 0.0 -0.0 0.0 0.0 -3.99279e-14 -1.52699e-14 6.05167e-15 69.8177 31.3889 -8.73643 -11.5299 -5.57661 20.1585 -0.241701 -15.627 -2.23892 5.76643e-10 -3.6894e-10 -4.98691e-10 1.00254e-09 -6.44702e-10 -8.56638e-10 5.76661e-10 -3.68944e-10 -4.98692e-10 7.73091 5.47488 0.417314 5.76658e-10 -3.68943e-10 -4.98687e-10 2.90554 0.965183 0.102902 5.76648e-10 -3.68936e-10 -4.98686e-10 10.2786 0.731801 0.0259123 5.76637e-10 -3.68936e-10 -4.98677e-10 2.22167 -0.733487 -0.20892 -3.99132e-14 -1.52704e-14 5.82765e-15 -64.4714 37.5362 1.77496 10.6573 -4.93275 -18.6016 0.566175 -23.4591 3.44691 1.03026e-09 7.31148e-10 1.21128e-10 1.77686e-09 1.25948e-09 2.29963e-10 1.03026e-09 7.3115e-10 1.21132e-10 -7.73091 5.47488 -0.417314 1.03026e-09 7.31146e-10 1.21123e-10 -2.90554 0.965183 -0.102902 1.03025e-09 7.31147e-10 1.21126e-10 -10.2786 0.731801 -0.0259123 1.03027e-09 7.31147e-10 1.21122e-10 -2.22167 -0.733487 0.20892 -2.03217e-16 0.0 -3.88251e-19 -0.249614 -2.82033 3.36141 0.00485692 10.5995 0.208362 -4.89653 -15.8712 -16.5635 2.03217e-16 0.0 3.88251e-19 1.34876 -0.156828 0.080333 -0.00110744 1.51944 -0.0765258 0.0262733 0.022301 -4.9644
48.0845 85.1893 -69.9441 3.3653 -0.8186 2.0641 -1.8445 -8.50574 2.16628 0.340509 4.59656 0.82797 -0.265754 19.7203 -1.73721 -0.211042 -35.3249 -3.55602 -0.0 0.0 0.0 -0.0 0.0 0.0 -6.20046e-14 -1.39145e-14 8.05078e-15 86.7936 38.3472 -11.5661 -13.5482 -6.59564 24.6496 -0.457224 -18.8622 -2.75208 6.71216e-10 -4.68038e-10 -5.89675e-10 1.1671e-09 -8.17307e-10 -1.01207e-09 6.71237e-10 -4.68043e-10 -5.89675e-10 7.73091 5.47488 0.417314 6.71234e-10 -4.68041e-10 -5.89672e-10 2.90554 0.965183 0.102902 6.71222e-10 -4.68035e-10 -5.89671e-10 10.2786 0.731801 0.0259123 6.7121e-10 -4.68034e-10 -5.89662e-10 2.22167 -0.733487 -0.20892 -6.19417e-14 -1.39153e-14 7.85199e-15 -79.0413 45.6778 2.43616 12.5446 -5.8379 -22.6689 1.11192 -28.4995 4.37626 1.13561e-09 8.86764e-10 1.71063e-10 1.95776e-09 1.52726e-09 3.20057e-10 1.1356e-09 8.86766e-10 1.71066e-10 -7.73091 5.47488 -0.417314 1.13561e-09 8.86761e-10 1.71057e-10 -2.90554 0.965183 -0.102902 1.1356e-09 8.86763e-10 1.71061e-10 -10.2786 0.731801 -0.0259123 1.13561e-09 8.86763e-10 1.71057e-10 -2.22167 -0.733487 0.20892 -2.03217e-16 0.0 -3.88251e-19 -0.893222 -1.70124 4.11427 0.00396911 11.036 0.224299 -7.05758 -18.7864 -20.5384 2.03217e-16 0.0 3.88251e-19 1.36446 0.247705 0.0966691 -0.00110932 2.31433 -0.11001 -0.170354 -0.846036 -6.03204
48.0685 85.1936 -69.9131 3.4468 -0.7767 2.0311 -2.13341 -9.07352 2.28747 0.316977 4.98514 0.871512 -0.347634 21.024 -1.8178 -0.207067 -37.6992 -3.74588 -0.0 0.0 0.0 -0.0 0.0 0.0 -8.10143e-14 -2.53116e-15 1.12702e-14 93.8438 41.5803 -12.8876 -14.3106 -6.9769 26.4539 -0.536798 -19.7666 -2.90234 8.68686e-10 -5.63297e-10 -5.91365e-10 1.50815e-09 -9.82091e-10 -1.01247e-09 8.68706e-10 -5.63303e-10 -5.91366e-10 7.73091 5.47488 0.417314 8.68702e-10 -5.633e-10 -5.91363e-10 2.90554 0.965183 0.102902 8.68692e-10 -5.63295e-10 -5.91362e-10 10.2786 0.731801 0.0259123 8.68679e-10 -5.63293e-10 -5.91355e-10 2.22167 -0.733487 -0.20892 -8.09757e-14 -2.53182e-15 1.10492e-14 -84.8218 48.728 2.71243 13.2069 -6.14015 -24.1863 1.36408 -30.3366 4.74748 1.14138e-09 9.63858e-10 2.42223e-10 1.96621e-09 1.65948e-09 4.43481e-10 1.14137e-09 9.6386e-10 2.42228e-10 -7.73091 5.47488 -0.417314 1.14138e-09 9.63856e-10 2.42216e-10 -2.90554 0.965183 -0.102902 1.14137e-09 9.63857e-10 2.42219e-10 -10.2786 0.731801 -0.0259123 1.14138e-09 9.63857e-10 2.42214e-10 -2.22167 -0.733487 0.20892 -2.03217e-16 0.0 -3.88251e-19 -1.20174 -1.20077 4.35205 0.00326855 11.1844 0.230324 -8.006 -19.8557 -22.1172 2.03217e-16 0.0 3.88251e-19 1.32409 0.442282 0.0972894 -0.00145816 2.63727 -0.12368 -0.25782 -1.18949 -6.47193
48.0589 85.1997 -69.8853 3.5398 -0.7249 1.9834 -2.14358 -8.96491 2.22596 0.320475 5.04639 0.854822 -0.515262 20.7471 -1.71555 0.153287 -37.2688 -3.43103 -0.0 0.0 0.0 -0.0 0.0 0.0 -9.76751e-14 1.58944e-14 1.53002e-14 93.3328 42.2294 -12.7683 -14.2628 -6.96359 26.327 -0.490702 -19.0097 -2.78091 1.13705e-09 -6.54683e-10 -5.29404e-10 1.97077e-09 -1.13933e-09 -9.02382e-10 1.13707e-09 -6.54688e-10 -5.29406e-10 7.73091 5.47488 0.417314 1.13707e-09 -6.54684e-10 -5.29404e-10 2.90554 0.965183 0.102902 1.13706e-09 -6.54683e-10 -5.29403e-10 10.2786 0.731801 0.0259123 1.13705e-09 -6.5468e-10 -5.29397e-10 2.22167 -0.733487 -0.20892 -9.77119e-14 1.58941e-14 1.50238e-14 -84.1799 48.1457 2.58992 13.0627 -6.05516 -23.8733 1.3108 -29.8933 4.65963 1.07527e-09 9.83696e-10 3.28007e-10 1.85018e-09 1.69285e-09 5.89772e-10 1.07526e-09 9.83698e-10 3.28015e-10 -7.73091 5.47488 -0.417314 1.07527e-09 9.83695e-10 3.27998e-10 -2.90554 0.965183 -0.102902 1.07526e-09 9.83695e-10 3.28001e-10 -10.2786 0.731801 -0.0259123 1.07527e-09 9.83697e-10 3.27992e-10 -2.22167 -0.733487 0.20892 -2.03217e-16 0.0 -3.88251e-19 -1.25528 -1.1418 4.22191 0.00283006 11.1273 0.229241 -7.86394 -19.7197 -21.8931 2.03217e-16 0.0 3.88251e-19 1.24434 0.486553 0.0868026 -0.00252255 2.62311 -0.123163 -0.250936 -1.15979 -6.46238
48.0418 85.2064 -69.8655 3.5997 -0.674 1.9307 -2.02523 -8.58689 2.0969 0.331213 4.96102 0.815051 -0.679761 19.8789 -1.56341 0.554669 -35.7936 -2.99598 -0.0 0.0 0.0 -0.0 0.0 0.0 -1.08076e-13 3.30817e-14 1.76064e-14 89.7386 41.7889 -12.0376 -13.8938 -6.79454 25.4295 -0.406205 -17.6512 -2.56477 1.34644e-09 -7.0649e-10 -4.46337e-10 2.33125e-09 -1.22782e-09 -7.56648e-10 1.34645e-09 -7.06494e-10 -4.4634e-10 7.73091 5.47488 0.417314 1.34645e-09 -7.06491e-10 -4.46338e-10 2.90554 0.965183 0.102902 1.34645e-09 -7.06492e-10 -4.46337e-10 10.2786 0.731801 0.0259123 1.34643e-09 -7.06488e-10 -4.46333e-10 2.22167 -0.733487 -0.20892 -1.08196e-13 3.30819e-14 1.7276e-14 -80.9869 46.1239 2.32818 12.591 -5.81226 -22.8263 1.14089 -28.538 4.39197 9.54883e-10 9.41377e-10 4.01579e-10 1.64063e-09 1.61902e-09 7.13603e-10 9.54883e-10 9.41378e-10 4.0159e-10 -7.73091 5.47488 -0.417314 9.54885e-10 9.41377e-10 4.0157e-10 -2.90554 0.965183 -0.102902 9.54878e-10 9.41376e-10 4.01572e-10 -10.2786 0.731801 -0.0259123 9.5489e-10 9.41379e-10 4.0156e-10 -2.22167 -0.733487 0.20892 -2.03217e-16 0.0 -3.88251e-19 -1.18885 -1.27699 3.95325 0.00264905 10.9944 0.225392 -7.28936 -19.0974 -20.9504 2.03217e-16 0.0 3.88251e-19 1.16754 0.45933 0.0759416 -0.00379352 2.47424 -0.116828 -0.205601 -0.979514 -6.26754
